<svg fill="#000000" height="200px" width="200px" version="1.1" id="Layer_1" xmlns="http://www.w3.org/2000/svg" xmlns:xlink="http://www.w3.org/1999/xlink" viewBox="0 0 496 496" xml:space="preserve"><g id="SVGRepo_bgCarrier" stroke-width="0"></g><g id="SVGRepo_tracerCarrier" stroke-linecap="round" stroke-linejoin="round"></g><g id="SVGRepo_iconCarrier"> <g> <g> <path d="M489.6,169.6L324.8,4.8c-6.4-6.4-16-6.4-22.4,0L176,131.2c-1.6,0-3.2,1.6-3.2,3.2l-136,244.8c-3.2,6.4-1.6,14.4,3.2,19.2 L97.6,456c3.2,3.2,6.4,4.8,11.2,4.8c3.2,0,4.8-1.6,8-3.2l243.2-136c1.6-1.6,1.6-1.6,3.2-3.2L489.6,192c3.2-3.2,4.8-6.4,4.8-11.2 C494.4,176,492.8,172.8,489.6,169.6z M344,294.4L112,424l-40-40l128-232L315.2,38.4l142.4,142.4L344,294.4z"></path> </g> </g> <g> <g> <path d="M112,420.8c-6.4-6.4-16-6.4-22.4,0l-40,40c-1.6,1.6-3.2,3.2-6.4,3.2s-4.8-1.6-6.4-3.2c-1.6-1.6-3.2-4.8-3.2-6.4 c0-3.2,1.6-4.8,3.2-6.4l40-40l-22.4-22.4l-40,40c-8,8-12.8,17.6-12.8,28.8c0,11.2,3.2,20.8,11.2,28.8S30.4,496,41.6,496 c9.6,0,20.8-4.8,30.4-12.8l40-40C118.4,436.8,118.4,427.2,112,420.8z"></path> </g> </g> <g> <g> <path d="M304,236.8l-104-104c-6.4-6.4-16-6.4-22.4,0c-6.4,6.4-6.4,16,0,22.4l104,104c3.2,3.2,6.4,4.8,11.2,4.8 c3.2,0,8-1.6,11.2-4.8C310.4,252.8,310.4,243.2,304,236.8z"></path> </g> </g> </g></svg>